<svg xmlns="http://www.w3.org/2000/svg" version="1.1" xmlns:xlink="http://www.w3.org/1999/xlink"
    xmlns:svgjs="http://svgjs.dev/svgjs" viewBox="0 0 6.385155108897722 7.039371637234195">
    <g transform="matrix(1,0,0,1,0.5585577790582357,5.370813858175961)">
        <g>
            <path
                d=" M 0.28200000000000003 0.40049999999999986 L 0.28200000000000003 0.8849999999999999 Q 0.28200000000000003 0.9449999999999998 0.3075 0.9697499999999999 Q 0.333 0.9944999999999998 0.396 0.9944999999999998 L 0.4965 0.9944999999999998 L 0.4965 1.1099999999999999 L 0.3735 1.1099999999999999 Q 0.2595 1.1099999999999999 0.2025 1.0574999999999999 Q 0.1455 1.005 0.1455 0.8849999999999999 L 0.1455 0.40049999999999986 L 0.039 0.40049999999999986 L 0.039 0.2879999999999998 L 0.1455 0.2879999999999998 L 0.1455 0.08099999999999996 L 0.28200000000000003 0.08099999999999996 L 0.28200000000000003 0.2879999999999998 L 0.4965 0.2879999999999998 L 0.4965 0.40049999999999986 L 0.28200000000000003 0.40049999999999986 M 1.2525205078125001 0.31274999999999986 Q 1.3275205078125 0.3524999999999998 1.3702705078125001 0.43199999999999983 Q 1.4130205078125 0.5114999999999998 1.4130205078125 0.6255 L 1.4130205078125 1.1099999999999999 L 1.2780205078125 1.1099999999999999 L 1.2780205078125 0.6449999999999998 Q 1.2780205078125 0.5219999999999999 1.2165205078125 0.4567499999999999 Q 1.1550205078125 0.39149999999999985 1.0485205078125 0.39149999999999985 Q 0.9405205078125001 0.39149999999999985 0.8767705078125001 0.45899999999999985 Q 0.8130205078125 0.5264999999999999 0.8130205078125 0.6554999999999999 L 0.8130205078125 1.1099999999999999 L 0.6765205078125001 1.1099999999999999 L 0.6765205078125001 -2.220446049250313e-16 L 0.8130205078125 -2.220446049250313e-16 L 0.8130205078125 0.4049999999999999 Q 0.8535205078125 0.34199999999999986 0.9247705078125 0.3074999999999999 Q 0.9960205078125 0.2729999999999999 1.0845205078125 0.2729999999999999 Q 1.1775205078125 0.2729999999999999 1.2525205078125001 0.31274999999999986 M 2.29504248046875 0.3637499999999999 Q 2.38804248046875 0.4544999999999999 2.38804248046875 0.6255 L 2.38804248046875 1.1099999999999999 L 2.25304248046875 1.1099999999999999 L 2.25304248046875 0.6449999999999998 Q 2.25304248046875 0.5219999999999999 2.19154248046875 0.4567499999999999 Q 2.13004248046875 0.39149999999999985 2.02354248046875 0.39149999999999985 Q 1.91554248046875 0.39149999999999985 1.85179248046875 0.45899999999999985 Q 1.78804248046875 0.5264999999999999 1.78804248046875 0.6554999999999999 L 1.78804248046875 1.1099999999999999 L 1.65154248046875 1.1099999999999999 L 1.65154248046875 0.2879999999999998 L 1.78804248046875 0.2879999999999998 L 1.78804248046875 0.4049999999999999 Q 1.82854248046875 0.34199999999999986 1.89829248046875 0.3074999999999999 Q 1.96804248046875 0.2729999999999999 2.0520424804687503 0.2729999999999999 Q 2.20204248046875 0.2729999999999999 2.29504248046875 0.3637499999999999 M 3.085564453125 1.1099999999999999 L 2.7630644531249997 0.7469999999999999 L 2.7630644531249997 1.1099999999999999 L 2.626564453125 1.1099999999999999 L 2.626564453125 -2.220446049250313e-16 L 2.7630644531249997 -2.220446049250313e-16 L 2.7630644531249997 0.6524999999999999 L 3.079564453125 0.2879999999999998 L 3.270064453125 0.2879999999999998 L 2.883064453125 0.6974999999999998 L 3.271564453125 1.1099999999999999 L 3.085564453125 1.1099999999999999 M 3.65333642578125 0.31199999999999983 Q 3.72008642578125 0.2729999999999999 3.81608642578125 0.2729999999999999 L 3.81608642578125 0.4139999999999998 L 3.78008642578125 0.4139999999999998 Q 3.5505864257812503 0.4139999999999998 3.5505864257812503 0.6629999999999998 L 3.5505864257812503 1.1099999999999999 L 3.41408642578125 1.1099999999999999 L 3.41408642578125 0.2879999999999998 L 3.5505864257812503 0.2879999999999998 L 3.5505864257812503 0.4214999999999999 Q 3.58658642578125 0.35099999999999987 3.65333642578125 0.31199999999999983 M 4.606565185546875 0.8774999999999998 L 4.150565185546875 0.8774999999999998 L 4.066565185546875 1.1099999999999999 L 3.9225651855468753 1.1099999999999999 L 4.300565185546875 0.07049999999999979 L 4.458065185546875 0.07049999999999979 L 4.834565185546875 1.1099999999999999 L 4.690565185546875 1.1099999999999999 L 4.606565185546875 0.8774999999999998 M 4.567565185546875 0.7664999999999998 L 4.378565185546876 0.23849999999999982 L 4.189565185546876 0.7664999999999998 L 4.567565185546875 0.7664999999999998 M 5.15108203125 0.06449999999999978 L 5.15108203125 1.1099999999999999 L 5.01458203125 1.1099999999999999 L 5.01458203125 0.06449999999999978 L 5.15108203125 0.06449999999999978"
                fill="#000000" fill-rule="nonzero"></path>
        </g>
        <g></g>
        <g clip-path="url(#SvgjsClipPath1001)">
            <g clip-path="url(#SvgjsClipPath10008f2efab7-9668-458b-97be-08bd026ba90b)">
                <path
                    d=" M 2.7099989149824015 -0.2499999999999991 L 2.7099989149824015 -2.531121707963896 L 4.381539986001478 -3.49622140224857 L 4.381539986001478 -1.215087031094741 L 4.53349826518503 -1.30283027413331 L 4.53349826518503 -3.7594258049844145 L 2.558040635798849 -2.618864951002466 L 2.558040635798849 -0.5132044027358438 L 0.8864995647797727 -1.4782914338305857 L 0.8864995647797727 -3.583951982097207 L 2.8619571941659543 -4.724525499269088 L 2.7099989149824015 -4.812256079117725 L 0.7345412855962202 -3.671695225135777 L 0.7345412855962202 -1.3905608539819476 L 2.7099989149824015 -0.2499999999999991 Z"
                    fill="#ff6b00" transform="matrix(1,0,0,1,0,0)" fill-rule="nonzero"></path>
            </g>
            <g clip-path="url(#SvgjsClipPath10008f2efab7-9668-458b-97be-08bd026ba90b)">
                <path
                    d=" M 3.4697903109001635 -0.6886782256230513 L 3.621748590083716 -0.7764088054716884 L 3.621748590083716 -2.180186725379414 L 3.4697903109001635 -2.0924434823408444 L 3.4697903109001635 -0.6886782256230513 Z"
                    fill="#ff6b00" transform="matrix(1,0,0,1,0,0)" fill-rule="nonzero"></path>
            </g>
            <g clip-path="url(#SvgjsClipPath10008f2efab7-9668-458b-97be-08bd026ba90b)">
                <path
                    d=" M 3.165873752533059 -0.5132044027358438 L 3.3178320317166112 -0.6009349825844819 L 3.3178320317166112 -2.180186725379414 L 3.773706869267268 -2.443391128115259 L 3.773706869267268 -0.8641520485102578 L 3.9256651484508214 -0.9518826283588959 L 3.9256651484508214 -2.7065955308511036 L 3.165873752533059 -2.2679173052280515 L 3.165873752533059 -0.5132044027358438 Z"
                    fill="#ff6b00" transform="matrix(1,0,0,1,0,0)" fill-rule="nonzero"></path>
            </g>
            <g clip-path="url(#SvgjsClipPath10008f2efab7-9668-458b-97be-08bd026ba90b)">
                <path
                    d=" M 1.6462909606975347 -1.9169823226435696 L 1.7982492398810872 -1.8292390796049998 L 1.7982492398810872 -3.0575431766255177 L 3.773706869267268 -4.198104030607467 L 3.621748590083716 -4.285847273646036 L 1.6462909606975347 -3.1452737564741557 L 1.6462909606975347 -1.9169823226435696 Z"
                    fill="#ff6b00" transform="matrix(1,0,0,1,0,0)" fill-rule="nonzero"></path>
            </g>
            <g clip-path="url(#SvgjsClipPath10008f2efab7-9668-458b-97be-08bd026ba90b)">
                <path
                    d=" M 2.8619571941659543 -0.3377305798486372 L 3.013915473349506 -0.4254738228872066 L 3.013915473349506 -2.355660548266621 L 4.077623427634373 -2.96981259677688 L 4.077623427634373 -1.0396132082075331 L 4.229581706817925 -1.127356451246103 L 4.229581706817925 -3.233016999512725 L 2.8619571941659543 -2.443391128115259 L 2.8619571941659543 -0.3377305798486372 Z"
                    fill="#ff6b00" transform="matrix(1,0,0,1,0,0)" fill-rule="nonzero"></path>
            </g>
            <g clip-path="url(#SvgjsClipPath10008f2efab7-9668-458b-97be-08bd026ba90b)">
                <path
                    d=" M 1.3423744023304298 -1.7415084997563626 L 2.102165798248192 -1.30283027413331 L 2.102165798248192 -2.8820693537383106 L 4.077623427634373 -4.022630207720259 L 3.9256651484508214 -4.1103734507588285 L 1.9502075190646395 -2.96981259677688 L 1.9502075190646395 -1.566034676869155 L 1.4943326815139821 -1.8292390796049998 L 1.4943326815139821 -3.233016999512725 L 3.4697903109001635 -4.373577853494673 L 3.3178320317166112 -4.461308433343311 L 1.3423744023304298 -3.3207475793613623 L 1.3423744023304298 -1.7415084997563626 Z"
                    fill="#ff6b00" transform="matrix(1,0,0,1,0,0)" fill-rule="nonzero"></path>
            </g>
            <g clip-path="url(#SvgjsClipPath10008f2efab7-9668-458b-97be-08bd026ba90b)">
                <path
                    d=" M 1.038457843963325 -1.566034676869155 L 2.406082356615297 -0.7764088054716884 L 2.406082356615297 -2.7065955308511036 L 4.381539986001478 -3.847169048022984 L 4.229581706817925 -3.9348996278716215 L 2.2541240774317446 -2.794338773889673 L 2.2541240774317446 -1.0396132082075331 L 1.1904161231468775 -1.6537652567177927 L 1.1904161231468775 -3.408490822399932 L 3.165873752533059 -4.549051676381881 L 3.013915473349506 -4.636782256230518 L 1.038457843963325 -3.49622140224857 L 1.038457843963325 -1.566034676869155 Z"
                    fill="#ff6b00" transform="matrix(1,0,0,1,0,0)" fill-rule="nonzero"></path>
            </g>
        </g>
    </g>
    <defs>
        <clipPath id="SvgjsClipPath1001">
            <path
                d=" M 0.7345412855962206 -4.812256079117725 h 3.7989569795888096 v 4.562256079117725 h -3.7989569795888096 Z"></path>
        </clipPath>
        <clipPath id="SvgjsClipPath10008f2efab7-9668-458b-97be-08bd026ba90b">
            <path
                d=" M 0.7345412855962202 -4.812256079117725 L 4.53349826518503 -4.812256079117725 L 4.53349826518503 -0.25 L 0.7345412855962199 -0.25 Z"></path>
        </clipPath>
    </defs>
</svg>